<?xml version="1.0" encoding="UTF-8"?><svg id="Ebene_2" xmlns="http://www.w3.org/2000/svg" viewBox="0 0 910 790"><defs><style>.cls-1,.cls-2{fill:#1d71b8;stroke:#1d71b8;}.cls-1,.cls-2,.cls-3{stroke-miterlimit:10;}.cls-1,.cls-4,.cls-3{stroke-width:8px;}.cls-4{stroke-linecap:round;stroke-linejoin:round;}.cls-4,.cls-3{fill:none;stroke:#009fe3;}</style></defs><polyline class="cls-3" points="389.46 282.96 390.95 321.36 374.1 341.18"/><path class="cls-4" d="m601.23,468s-44.44-87.35-44.44-100.01,48.02-70.86,40.79-122.38c-8.25-58.76-48.14-109.45-125.83-109.45s-127.26,62.71-127.26,108.88c0,0-.39,5.63,2.8,12.93s3.5,14.27.88,21.18c-2.62,6.91-27.28,46.49-23.7,54.09,3.58,7.6,24.54,3.83,26.98,12.36s-11.94,20.38-7.44,27.87c4.5,7.49,11.47,6.53,11.47,14.25s-17.23,28.1-1.44,37.42,120.21-119.89,135.76-116.52c15.55,3.37,14.27,7.89,14.86,15.24s3.11,33.48,0,37.61c-5.43,7.19-67.2,64.22-71.25,72.52s-2.56,23.07-2.56,23.07"/><path class="cls-4" d="m410.27,151.41s46.86,51.06,48.84,54.53c2.31,4.04,64.13,1.21,67.1.97,3.46-.29,19.04-14.6,21.31-15.61s31.51.6,31.51.6"/><polyline class="cls-4" points="485.66 162.66 494.75 172.47 409.28 252.74 390.95 236.14 377.82 238.37 377.07 279.25 404.82 286.18 461.56 237.62 492.55 238.86 493.03 306.48"/><polyline class="cls-4" points="492.61 246.77 536.62 247.04 562.89 221.02 589.15 220.03"/><polyline class="cls-4" points="504.61 323.11 537.37 322.35 560.16 300.06 589.15 300.3"/><polyline class="cls-4" points="522.47 388.55 504.69 399.89 505.39 437.69 478.02 456.27"/><polyline class="cls-4" points="505.81 423.83 531.57 422.85 558.38 454.44"/><circle class="cls-1" cx="481.6" cy="158.76" r="5.64"/><circle class="cls-1" cx="377.07" cy="337.69" r="6.16"/><circle class="cls-1" cx="430.64" cy="460.04" r="6.56"/><circle class="cls-1" cx="561.78" cy="460.04" r="6.56"/><circle class="cls-1" cx="472.65" cy="460.04" r="6.56"/><circle class="cls-1" cx="528.48" cy="384.57" r="6.47"/><path class="cls-2" d="m113.89,597.96v10.95c0,1.21-.73,1.81-2.19,1.81s-2.16-.6-2.16-1.81v-25.61c0-1.18.74-1.78,2.22-1.78s2.13.59,2.13,1.77v11.21h10.31c1.1,0,1.65.59,1.65,1.76s-.55,1.7-1.65,1.7h-10.31Zm30.15,10.95c0,1.21-.72,1.81-2.16,1.81s-2.09-.6-2.09-1.81v-10.95h-9.55c-1.08,0-1.62-.57-1.62-1.7s.54-1.76,1.62-1.76h9.55v-11.21c0-1.18.69-1.77,2.06-1.77,1.46,0,2.19.59,2.19,1.78v25.61Z"/><path class="cls-2" d="m171.96,595.36c.46.47.87,1,1.22,1.6.35.6.52,1.18.52,1.73l-.03,10.25c-.11,1.19-.8,1.78-2.09,1.78-1.44,0-2.16-.6-2.16-1.81v-10.57l-13.68-13.71c-.38-.38-.57-.77-.57-1.17,0-.49.22-.92.67-1.29.44-.37.94-.56,1.49-.56.23,0,.48.04.73.11.25.07.49.22.7.43l13.2,13.2Zm12.31-13.17c.19-.19.4-.33.62-.41.22-.08.45-.13.68-.13.32,0,.61.06.87.17.26.12.5.28.71.48.21.2.38.42.49.67.12.24.17.49.17.75,0,.32-.15.62-.45.92l-9.9,9.97c-.38.38-.84.57-1.36.57s-1.04-.19-1.48-.57c-.43-.38-.65-.84-.65-1.36,0-.47.19-.89.57-1.27l9.71-9.78Z"/><path class="cls-2" d="m227.33,588.47c0-2.22-2.23-3.33-6.7-3.33h-21.68c-1.21,0-1.81-.57-1.81-1.71s.6-1.75,1.81-1.75h21.14c7.64,0,11.46,2.14,11.46,6.41v5.08c0,4.49-3.9,6.73-11.71,6.73h-17.74c-.4,0-.6.25-.6.76v8.25c0,1.21-.73,1.81-2.19,1.81s-2.16-.6-2.16-1.81v-8.66c0-2.54,1.98-3.81,5.94-3.81h17.3c4.63,0,6.95-1.16,6.95-3.49v-4.48Z"/><path class="cls-2" d="m245.86,603.39c0,2.45,2.34,3.68,7.01,3.68h18.31c1.04,0,1.55.58,1.55,1.75s-.52,1.71-1.55,1.71h-18.47c-7.47,0-11.2-2.32-11.2-6.95v-14.76c0-4.76,3.86-7.14,11.58-7.14h5.05c.99,0,1.49.59,1.49,1.78,0,1.12-.5,1.68-1.49,1.68h-3.43c-5.9,0-8.86,1.23-8.86,3.68v14.57Zm25.33-8.89c.99,0,1.49.59,1.49,1.76s-.5,1.7-1.49,1.7h-21.8c-1.27,0-1.9-.57-1.9-1.7s.63-1.76,1.9-1.76h21.8Z"/><path class="cls-2" d="m310.06,588.85c0-2.47-2.34-3.71-7.01-3.71h-21.07c-1.21,0-1.81-.55-1.81-1.65,0-1.21.6-1.81,1.81-1.81h20.41c7.96,0,11.93,2.47,11.93,7.43v3.11c0,4.57-3.66,6.86-10.98,6.86h-10.98l18.66,8c.34.15.58.36.73.63.15.27.22.56.22.86,0,.51-.17.99-.52,1.44-.35.46-.79.68-1.32.68-.23,0-.48-.06-.73-.19l-23.84-10.98c-.36-.15-.63-.38-.82-.7-.19-.32-.29-.66-.29-1.02,0-.53.2-1.02.6-1.46.4-.44.97-.67,1.71-.67h16.98c4.21,0,6.32-1.03,6.32-3.08v-3.75Z"/><path class="cls-2" d="m360.32,590.06c0,2.69-1.5,4.55-4.51,5.59,3,.97,4.51,2.93,4.51,5.87v1.65c0,4.91-3.87,7.36-11.62,7.36h-20.63c-1.21,0-1.81-.58-1.81-1.75s.6-1.71,1.81-1.71h21.36c4.36,0,6.54-1.23,6.54-3.68v-2.83c0-1.99-2.13-2.98-6.38-2.98h-21.52c-1.23,0-1.84-.57-1.84-1.71,0-1.21.61-1.81,1.84-1.81h21.55c4.23,0,6.35-1.05,6.35-3.14v-2.79c0-1.99-2.16-2.98-6.47-2.98h-21.55c-1.23,0-1.84-.57-1.84-1.71s.61-1.75,1.84-1.75h20.41c7.98,0,11.96,2.22,11.96,6.66v1.71Z"/><path class="cls-2" d="m403.39,589.42c0-2.86-2.33-4.29-6.98-4.29h-10.38c-4.95,0-7.43,1.43-7.43,4.29v3.01c0,1.48-.73,2.22-2.19,2.22s-2.16-.74-2.16-2.22v-3.17c0-5.06,4.23-7.58,12.7-7.58h8.03c8.46,0,12.7,2.53,12.7,7.58v3.17c0,1.48-.72,2.22-2.16,2.22s-2.13-.71-2.13-2.13v-3.11Zm4.28,13.55c0,5.04-4.23,7.55-12.7,7.55h-8.03c-8.46,0-12.7-2.5-12.7-7.49v-3.43c0-1.46.72-2.19,2.16-2.19s2.19.73,2.19,2.19v3.3c0,2.77,2.48,4.16,7.43,4.16h10.09c4.85,0,7.27-1.39,7.27-4.16v-3.3c0-1.46.71-2.19,2.13-2.19s2.16.73,2.16,2.19v3.36Z"/><path class="cls-2" d="m418.8,585.14c-1.06,0-1.59-.6-1.59-1.81,0-1.1.53-1.65,1.59-1.65h27.99c1.02,0,1.52.55,1.52,1.65,0,1.21-.51,1.81-1.52,1.81h-27.99Zm16.12,23.77c0,1.21-.71,1.81-2.13,1.81s-2.16-.6-2.16-1.81v-20.15c0-1.42.71-2.13,2.13-2.13s2.16.71,2.16,2.13v20.15Z"/><path class="cls-2" d="m505.08,588.85c0-2.47-2.34-3.71-7.01-3.71h-21.07c-1.21,0-1.81-.55-1.81-1.65,0-1.21.6-1.81,1.81-1.81h20.41c7.96,0,11.93,2.47,11.93,7.43v3.11c0,4.57-3.66,6.86-10.98,6.86h-10.98l18.66,8c.34.15.58.36.73.63.15.27.22.56.22.86,0,.51-.17.99-.52,1.44-.35.46-.79.68-1.32.68-.23,0-.48-.06-.73-.19l-23.84-10.98c-.36-.15-.63-.38-.82-.7-.19-.32-.29-.66-.29-1.02,0-.53.2-1.02.6-1.46.4-.44.97-.67,1.71-.67h16.98c4.21,0,6.32-1.03,6.32-3.08v-3.75Z"/><path class="cls-2" d="m526.28,603.39c0,2.45,2.34,3.68,7.01,3.68h18.31c1.04,0,1.55.58,1.55,1.75s-.52,1.71-1.55,1.71h-18.47c-7.47,0-11.2-2.32-11.2-6.95v-14.76c0-4.76,3.86-7.14,11.58-7.14h5.05c.99,0,1.49.59,1.49,1.78,0,1.12-.5,1.68-1.49,1.68h-3.43c-5.9,0-8.86,1.23-8.86,3.68v14.57Zm25.33-8.89c.99,0,1.49.59,1.49,1.76s-.5,1.7-1.49,1.7h-21.8c-1.27,0-1.9-.57-1.9-1.7s.63-1.76,1.9-1.76h21.8Z"/><path class="cls-2" d="m594.6,604.81c0,3.81-3.09,5.71-9.27,5.71h-19.11c-1.08,0-1.62-.59-1.62-1.78,0-1.12.54-1.68,1.62-1.68h19.65c2.92,0,4.38-1.14,4.38-3.43v-3.33c0-1.9-1.84-2.86-5.52-2.86h-11.73c-6.47,0-9.7-1.71-9.7-5.14v-4.76c0-3.91,2.78-5.87,8.35-5.87h.73c1.08,0,1.62.59,1.62,1.78,0,1.12-.54,1.68-1.62,1.68h-1.4c-2.26,0-3.4.9-3.4,2.7v4.06c0,1.44,1.57,2.16,4.7,2.16h11.93c6.92,0,10.38,1.95,10.38,5.84v4.92Z"/><path class="cls-2" d="m610.81,603.39c0,2.45,2.34,3.68,7.01,3.68h18.31c1.04,0,1.55.58,1.55,1.75s-.52,1.71-1.55,1.71h-18.47c-7.47,0-11.2-2.32-11.2-6.95v-14.76c0-4.76,3.86-7.14,11.58-7.14h5.05c.99,0,1.49.59,1.49,1.78,0,1.12-.5,1.68-1.49,1.68h-3.43c-5.9,0-8.86,1.23-8.86,3.68v14.57Zm25.33-8.89c.99,0,1.49.59,1.49,1.76s-.5,1.7-1.49,1.7h-21.8c-1.27,0-1.9-.57-1.9-1.7s.63-1.76,1.9-1.76h21.8Z"/><path class="cls-2" d="m666.28,586.03l-15.84,23.8c-.19.32-.42.54-.7.67-.27.13-.59.19-.95.19-.53,0-1.03-.17-1.49-.52-.47-.35-.7-.81-.7-1.38,0-.15.02-.32.06-.51.04-.19.14-.38.29-.57l-.03.03,16.57-24.79c.34-.51.75-.89,1.22-1.16.48-.26.98-.4,1.51-.4.49,0,.98.13,1.48.38s.93.65,1.29,1.17l16.6,24.72h-.03c.3.42.45.8.45,1.14,0,.55-.23,1-.68,1.33-.46.34-.95.51-1.48.51-.34,0-.67-.07-.98-.22-.32-.15-.57-.38-.76-.7v.03l-15.81-23.74Z"/><path class="cls-2" d="m722.83,588.85c0-2.47-2.34-3.71-7.01-3.71h-21.07c-1.21,0-1.81-.55-1.81-1.65,0-1.21.6-1.81,1.81-1.81h20.41c7.96,0,11.93,2.47,11.93,7.43v3.11c0,4.57-3.66,6.86-10.98,6.86h-10.98l18.66,8c.34.15.58.36.73.63.15.27.22.56.22.86,0,.51-.17.99-.52,1.44-.35.46-.79.68-1.32.68-.23,0-.48-.06-.73-.19l-23.84-10.98c-.36-.15-.63-.38-.82-.7-.19-.32-.29-.66-.29-1.02,0-.53.2-1.02.6-1.46.4-.44.97-.67,1.71-.67h16.98c4.21,0,6.32-1.03,6.32-3.08v-3.75Z"/><path class="cls-2" d="m751.13,585.14c-4.8,0-7.2,1.11-7.2,3.33v14.73c0,2.58,2.63,3.87,7.9,3.87h15.84c1.06,0,1.59.57,1.59,1.71s-.53,1.75-1.59,1.75h-16.41c-7.72,0-11.58-2.41-11.58-7.24v-14.82c0-4.53,3.79-6.79,11.36-6.79h6c1.06,0,1.59.57,1.59,1.71s-.53,1.75-1.59,1.75h-5.9Z"/><path class="cls-2" d="m785.66,597.96v10.95c0,1.21-.73,1.81-2.19,1.81s-2.16-.6-2.16-1.81v-25.61c0-1.18.74-1.78,2.22-1.78s2.13.59,2.13,1.77v11.21h10.31c1.1,0,1.65.59,1.65,1.76s-.55,1.7-1.65,1.7h-10.31Zm30.15,10.95c0,1.21-.72,1.81-2.16,1.81s-2.09-.6-2.09-1.81v-10.95h-9.55c-1.08,0-1.62-.57-1.62-1.7s.54-1.76,1.62-1.76h9.55v-11.21c0-1.18.69-1.77,2.06-1.77,1.46,0,2.19.59,2.19,1.78v25.61Z"/></svg>